<mxfile host="app.diagrams.net" modified="2024-02-14T07:44:58.215Z" agent="Mozilla/5.0 (Windows NT 10.0; Win64; x64) AppleWebKit/537.36 (KHTML, like Gecko) Chrome/121.0.0.0 Safari/537.36" etag="jpzFFnMNfQZ90lm272i3" version="23.1.4" type="github" pages="2">
  <diagram name="Page-1" id="bfe91b75-5d2c-26a0-9c1d-138518896778">
    <mxGraphModel dx="1077" dy="564" grid="1" gridSize="10" guides="1" tooltips="1" connect="1" arrows="1" fold="1" page="1" pageScale="1" pageWidth="1100" pageHeight="850" background="none" math="0" shadow="0">
      <root>
        <mxCell id="0" />
        <mxCell id="1" parent="0" />
        <mxCell id="7c3789c024ecab99-52" style="edgeStyle=none;html=1;labelBackgroundColor=none;endArrow=none;endFill=0;strokeWidth=2;fontFamily=Lucida Console;fontSize=10;fontColor=default;labelBorderColor=none;fontStyle=0;verticalAlign=top;align=left;" parent="1" source="7c3789c024ecab99-10" edge="1">
          <mxGeometry relative="1" as="geometry">
            <mxPoint x="730" y="440" as="targetPoint" />
          </mxGeometry>
        </mxCell>
        <mxCell id="7c3789c024ecab99-10" value="&lt;div style=&quot;text-align: center;&quot;&gt;&lt;span style=&quot;background-color: initial;&quot;&gt;&lt;b&gt;Modem&lt;/b&gt;&lt;/span&gt;&lt;/div&gt;(bridge lan)&lt;br style=&quot;font-size: 10px;&quot;&gt;lan:192.168.1.1" style="fontColor=default;verticalAlign=top;verticalLabelPosition=bottom;labelPosition=center;align=left;html=1;fillColor=#CCCCCC;strokeColor=#6881B3;gradientColor=none;gradientDirection=north;strokeWidth=2;shape=mxgraph.networks.router;rounded=0;shadow=0;comic=0;fontFamily=Lucida Console;labelBorderColor=none;fontSize=10;fontStyle=0;labelBackgroundColor=none;" parent="1" vertex="1">
          <mxGeometry x="600" y="425" width="100" height="30" as="geometry" />
        </mxCell>
        <mxCell id="7c3789c024ecab99-4" value="192.168.2.254&lt;br style=&quot;font-size: 10px;&quot;&gt;192.168.2.101" style="fontColor=default;verticalAlign=top;verticalLabelPosition=bottom;labelPosition=center;align=left;html=1;fillColor=#CCCCCC;strokeColor=#6881B3;gradientColor=none;gradientDirection=north;strokeWidth=2;shape=mxgraph.networks.pc;rounded=0;shadow=0;comic=0;fontFamily=Lucida Console;labelBorderColor=none;fontSize=10;fontStyle=0;labelBackgroundColor=none;" parent="1" vertex="1">
          <mxGeometry x="320.0000000000002" y="475" width="100" height="70" as="geometry" />
        </mxCell>
        <mxCell id="7c3789c024ecab99-5" value="192.168.2.1&lt;br style=&quot;font-size: 10px;&quot;&gt;192.168.2.100" style="fontColor=default;verticalAlign=top;verticalLabelPosition=bottom;labelPosition=center;align=left;html=1;fillColor=#CCCCCC;strokeColor=#6881B3;gradientColor=none;gradientDirection=north;strokeWidth=2;shape=mxgraph.networks.pc;rounded=0;shadow=0;comic=0;fontFamily=Lucida Console;labelBorderColor=none;fontSize=10;fontStyle=0;labelBackgroundColor=none;" parent="1" vertex="1">
          <mxGeometry x="460.0000000000002" y="475" width="100" height="70" as="geometry" />
        </mxCell>
        <mxCell id="7c3789c024ecab99-9" value="&lt;div style=&quot;text-align: center; font-size: 10px;&quot;&gt;&lt;span style=&quot;font-size: 10px;&quot;&gt;&lt;b&gt;GW2&lt;/b&gt;&lt;/span&gt;&lt;/div&gt;&lt;div style=&quot;font-size: 10px;&quot;&gt;&lt;span style=&quot;font-size: 10px;&quot;&gt;(dhcps:tag)&lt;/span&gt;&lt;/div&gt;&lt;div style=&quot;font-size: 10px;&quot;&gt;&lt;span style=&quot;font-size: 10px;&quot;&gt;wan:192.168.2.2&lt;/span&gt;&lt;/div&gt;lan:192.168.2.254" style="fontColor=default;verticalAlign=top;verticalLabelPosition=bottom;labelPosition=center;align=left;html=1;fillColor=#CCCCCC;strokeColor=#6881B3;gradientColor=none;gradientDirection=north;strokeWidth=2;shape=mxgraph.networks.wireless_hub;rounded=0;shadow=0;comic=0;fontFamily=Lucida Console;labelBorderColor=none;fontSize=10;fontStyle=0;labelBackgroundColor=none;" parent="1" vertex="1">
          <mxGeometry x="600.0000000000002" y="140" width="100" height="85" as="geometry" />
        </mxCell>
        <mxCell id="7c3789c024ecab99-11" value="" style="html=1;fillColor=#CCCCCC;strokeColor=#6881B3;gradientColor=none;gradientDirection=north;strokeWidth=2;shape=mxgraph.networks.comm_link_edge;html=1;labelBackgroundColor=none;endArrow=none;endFill=0;fontFamily=Lucida Console;fontSize=10;labelBorderColor=none;fontStyle=0;fontColor=default;verticalAlign=top;align=left;" parent="1" target="7c3789c024ecab99-12" edge="1">
          <mxGeometry width="100" height="100" relative="1" as="geometry">
            <mxPoint x="580" y="195" as="sourcePoint" />
            <mxPoint x="178.00000000000023" y="318" as="targetPoint" />
          </mxGeometry>
        </mxCell>
        <mxCell id="7c3789c024ecab99-12" value="192.168.2.254&lt;br&gt;192.168.2.102" style="fontColor=default;verticalAlign=top;verticalLabelPosition=bottom;labelPosition=center;align=left;html=1;fillColor=#CCCCCC;strokeColor=#6881B3;gradientColor=none;gradientDirection=north;strokeWidth=2;shape=mxgraph.networks.mobile;rounded=0;shadow=0;comic=0;fontFamily=Lucida Console;labelBorderColor=none;fontSize=10;fontStyle=0;labelBackgroundColor=none;" parent="1" vertex="1">
          <mxGeometry x="320.0000000000002" y="179" width="50" height="100" as="geometry" />
        </mxCell>
        <mxCell id="PPaj3rybvowzk9VgZqMH-3" value="&lt;div style=&quot;text-align: center;&quot;&gt;&lt;span style=&quot;background-color: initial;&quot;&gt;&lt;b&gt;GW&lt;/b&gt;&lt;/span&gt;&lt;/div&gt;(disable dhcps)&lt;br&gt;lan:192.168.2.1&lt;br style=&quot;font-size: 10px;&quot;&gt;wan:pppoe" style="fontColor=default;verticalAlign=top;verticalLabelPosition=bottom;labelPosition=center;align=left;html=1;fillColor=#CCCCCC;strokeColor=#6881B3;gradientColor=none;gradientDirection=north;strokeWidth=2;shape=mxgraph.networks.wireless_hub;rounded=0;shadow=0;comic=0;fontFamily=Lucida Console;labelBorderColor=none;fontSize=10;fontStyle=0;labelBackgroundColor=none;" parent="1" vertex="1">
          <mxGeometry x="600" y="279" width="100" height="85" as="geometry" />
        </mxCell>
        <mxCell id="PPaj3rybvowzk9VgZqMH-4" style="edgeStyle=orthogonalEdgeStyle;rounded=0;orthogonalLoop=1;jettySize=auto;html=1;entryX=0.5;entryY=1;entryDx=0;entryDy=0;entryPerimeter=0;shape=link;strokeWidth=2;fontFamily=Lucida Console;labelBorderColor=none;fontSize=10;fontStyle=0;fontColor=default;verticalAlign=top;align=left;labelBackgroundColor=none;opacity=40;" parent="1" source="7c3789c024ecab99-10" target="PPaj3rybvowzk9VgZqMH-3" edge="1">
          <mxGeometry relative="1" as="geometry" />
        </mxCell>
        <mxCell id="PPaj3rybvowzk9VgZqMH-10" style="edgeStyle=orthogonalEdgeStyle;rounded=0;orthogonalLoop=1;jettySize=auto;html=1;exitX=0.5;exitY=0.07;exitDx=0;exitDy=0;exitPerimeter=0;entryX=0.02;entryY=0.94;entryDx=0;entryDy=0;entryPerimeter=0;shape=link;opacity=50;strokeWidth=1;" parent="1" source="7c3789c024ecab99-5" target="PPaj3rybvowzk9VgZqMH-3" edge="1">
          <mxGeometry relative="1" as="geometry">
            <Array as="points">
              <mxPoint x="510" y="359" />
            </Array>
          </mxGeometry>
        </mxCell>
        <mxCell id="PPaj3rybvowzk9VgZqMH-11" style="edgeStyle=orthogonalEdgeStyle;rounded=0;orthogonalLoop=1;jettySize=auto;html=1;exitX=0.5;exitY=0.07;exitDx=0;exitDy=0;exitPerimeter=0;entryX=0;entryY=0.7;entryDx=0;entryDy=0;entryPerimeter=0;shape=link;strokeWidth=1;opacity=50;" parent="1" source="7c3789c024ecab99-4" target="PPaj3rybvowzk9VgZqMH-3" edge="1">
          <mxGeometry relative="1" as="geometry">
            <Array as="points">
              <mxPoint x="370" y="339" />
            </Array>
          </mxGeometry>
        </mxCell>
        <mxCell id="PPaj3rybvowzk9VgZqMH-13" style="edgeStyle=orthogonalEdgeStyle;rounded=0;orthogonalLoop=1;jettySize=auto;html=1;exitX=0.5;exitY=1;exitDx=0;exitDy=0;exitPerimeter=0;entryX=0.507;entryY=0.639;entryDx=0;entryDy=0;entryPerimeter=0;shape=link;strokeWidth=2;opacity=40;" parent="1" edge="1">
          <mxGeometry relative="1" as="geometry">
            <mxPoint x="649.6500000000003" y="225" as="sourcePoint" />
            <mxPoint x="650.3500000000004" y="333.31500000000005" as="targetPoint" />
          </mxGeometry>
        </mxCell>
        <mxCell id="PPaj3rybvowzk9VgZqMH-15" value="ISP" style="text;html=1;align=center;verticalAlign=middle;resizable=0;points=[];autosize=1;strokeColor=none;fillColor=none;" parent="1" vertex="1">
          <mxGeometry x="720" y="423" width="40" height="30" as="geometry" />
        </mxCell>
      </root>
    </mxGraphModel>
  </diagram>
  <diagram id="F3FGqewG469ox3-ocetz" name="第 2 页">
    <mxGraphModel dx="893" dy="467" grid="1" gridSize="10" guides="1" tooltips="1" connect="1" arrows="1" fold="1" page="1" pageScale="1" pageWidth="827" pageHeight="1169" math="0" shadow="0">
      <root>
        <mxCell id="0" />
        <mxCell id="1" parent="0" />
        <mxCell id="0nR7iEuXfGXllmMDNiH0-228" value="" style="rounded=0;whiteSpace=wrap;html=1;gradientColor=none;glass=0;shadow=1;strokeWidth=1;dashed=1;" vertex="1" parent="1">
          <mxGeometry x="230" y="340" width="220" height="210" as="geometry" />
        </mxCell>
        <mxCell id="0nR7iEuXfGXllmMDNiH0-8" value="&lt;div style=&quot;&quot;&gt;&lt;span style=&quot;background-color: initial;&quot;&gt;&lt;b&gt;GW&lt;/b&gt;&lt;/span&gt;&lt;/div&gt;AA:AA:AA:AA:AA:AA&lt;br&gt;wan:pppoe&lt;br&gt;2.2.2.1/gw&lt;br&gt;2.2.2.2/24&lt;br&gt;2.2.2.1/dns" style="fontColor=default;verticalAlign=top;verticalLabelPosition=bottom;labelPosition=center;align=right;html=1;fillColor=#CCCCCC;strokeColor=#6881B3;gradientColor=none;gradientDirection=north;strokeWidth=2;shape=mxgraph.networks.wireless_hub;rounded=0;shadow=0;comic=0;fontFamily=Lucida Console;labelBorderColor=none;fontSize=10;fontStyle=0;labelBackgroundColor=none;movable=1;resizable=1;rotatable=1;deletable=1;editable=1;locked=0;connectable=1;opacity=40;" vertex="1" parent="1">
          <mxGeometry x="674" y="190" width="100" height="85" as="geometry" />
        </mxCell>
        <mxCell id="0nR7iEuXfGXllmMDNiH0-1" style="edgeStyle=none;html=1;labelBackgroundColor=none;endArrow=none;endFill=0;strokeWidth=2;fontFamily=Lucida Console;fontSize=10;fontColor=default;labelBorderColor=none;fontStyle=0;verticalAlign=top;align=left;" edge="1" parent="1" source="0nR7iEuXfGXllmMDNiH0-2" target="0nR7iEuXfGXllmMDNiH0-13">
          <mxGeometry relative="1" as="geometry">
            <mxPoint x="730" y="440" as="targetPoint" />
          </mxGeometry>
        </mxCell>
        <mxCell id="0nR7iEuXfGXllmMDNiH0-2" value="&lt;div style=&quot;text-align: center;&quot;&gt;&lt;span style=&quot;background-color: initial;&quot;&gt;&lt;b&gt;Modem&lt;/b&gt;&lt;/span&gt;&lt;/div&gt;(bridge lan)&lt;br style=&quot;font-size: 10px;&quot;&gt;lan:192.168.1.1" style="fontColor=default;verticalAlign=top;verticalLabelPosition=bottom;labelPosition=center;align=left;html=1;fillColor=#CCCCCC;strokeColor=#6881B3;gradientColor=none;gradientDirection=north;strokeWidth=2;shape=mxgraph.networks.router;rounded=0;shadow=0;comic=0;fontFamily=Lucida Console;labelBorderColor=none;fontSize=10;fontStyle=0;labelBackgroundColor=none;" vertex="1" parent="1">
          <mxGeometry x="674" y="402" width="100" height="30" as="geometry" />
        </mxCell>
        <mxCell id="0nR7iEuXfGXllmMDNiH0-3" value="CC:CC:CC:CC:CC:CC&lt;br&gt;192.168.2.1/gw&lt;br style=&quot;font-size: 10px;&quot;&gt;192.168.2.100/24&lt;br&gt;192.168.2.1/dns&lt;br&gt;12h" style="fontColor=default;verticalAlign=top;verticalLabelPosition=bottom;labelPosition=center;align=left;html=1;fillColor=#CCCCCC;strokeColor=#6881B3;gradientColor=none;gradientDirection=north;strokeWidth=2;shape=mxgraph.networks.pc;rounded=0;shadow=0;comic=0;fontFamily=Lucida Console;labelBorderColor=none;fontSize=10;fontStyle=0;labelBackgroundColor=none;" vertex="1" parent="1">
          <mxGeometry x="336.0000000000002" y="346" width="100" height="70" as="geometry" />
        </mxCell>
        <mxCell id="0nR7iEuXfGXllmMDNiH0-4" value="DD:DD:DD:DD:DD:DD&lt;br&gt;192.168.2.1/gw&lt;br style=&quot;font-size: 10px;&quot;&gt;192.168.2.101/24&lt;br style=&quot;border-color: var(--border-color);&quot;&gt;192.168.2.1/dns&lt;br style=&quot;border-color: var(--border-color);&quot;&gt;12h" style="fontColor=default;verticalAlign=top;verticalLabelPosition=bottom;labelPosition=center;align=left;html=1;fillColor=#CCCCCC;strokeColor=#6881B3;gradientColor=none;gradientDirection=north;strokeWidth=2;shape=mxgraph.networks.pc;rounded=0;shadow=0;comic=0;fontFamily=Lucida Console;labelBorderColor=none;fontSize=10;fontStyle=0;labelBackgroundColor=none;" vertex="1" parent="1">
          <mxGeometry x="476.0000000000002" y="346" width="100" height="70" as="geometry" />
        </mxCell>
        <mxCell id="0nR7iEuXfGXllmMDNiH0-9" style="edgeStyle=orthogonalEdgeStyle;rounded=0;orthogonalLoop=1;jettySize=auto;html=1;entryX=0.5;entryY=1;entryDx=0;entryDy=0;entryPerimeter=0;shape=link;strokeWidth=2;fontFamily=Lucida Console;labelBorderColor=none;fontSize=10;fontStyle=0;fontColor=default;verticalAlign=top;align=left;labelBackgroundColor=none;opacity=40;" edge="1" parent="1" source="0nR7iEuXfGXllmMDNiH0-20" target="0nR7iEuXfGXllmMDNiH0-8">
          <mxGeometry relative="1" as="geometry" />
        </mxCell>
        <mxCell id="0nR7iEuXfGXllmMDNiH0-11" style="edgeStyle=orthogonalEdgeStyle;rounded=1;orthogonalLoop=1;jettySize=auto;html=1;shape=link;strokeWidth=1;opacity=50;" edge="1" parent="1" source="0nR7iEuXfGXllmMDNiH0-28" target="0nR7iEuXfGXllmMDNiH0-27">
          <mxGeometry relative="1" as="geometry">
            <Array as="points">
              <mxPoint x="340" y="255" />
            </Array>
            <mxPoint x="540" y="250" as="targetPoint" />
          </mxGeometry>
        </mxCell>
        <mxCell id="0nR7iEuXfGXllmMDNiH0-13" value="ISP" style="text;html=1;align=center;verticalAlign=middle;resizable=0;points=[];autosize=1;strokeColor=none;fillColor=none;" vertex="1" parent="1">
          <mxGeometry x="704" y="490" width="40" height="30" as="geometry" />
        </mxCell>
        <mxCell id="0nR7iEuXfGXllmMDNiH0-16" style="edgeStyle=none;rounded=0;orthogonalLoop=1;jettySize=auto;html=1;exitX=0.5;exitY=0.625;exitDx=0;exitDy=0;exitPerimeter=0;shape=link;dashed=1;strokeWidth=2;opacity=40;" edge="1" parent="1" source="0nR7iEuXfGXllmMDNiH0-19" target="0nR7iEuXfGXllmMDNiH0-18">
          <mxGeometry relative="1" as="geometry" />
        </mxCell>
        <mxCell id="0nR7iEuXfGXllmMDNiH0-17" value="" style="rounded=0;whiteSpace=wrap;html=1;" vertex="1" parent="1">
          <mxGeometry x="685" y="250" width="60" height="15" as="geometry" />
        </mxCell>
        <mxCell id="0nR7iEuXfGXllmMDNiH0-18" value="&#xa;0" style="shape=waypoint;sketch=0;fillStyle=solid;size=6;pointerEvents=1;points=[];fillColor=none;resizable=0;rotatable=0;perimeter=centerPerimeter;snapToPoint=1;fontStyle=1" vertex="1" parent="1">
          <mxGeometry x="670" y="245" width="20" height="20" as="geometry" />
        </mxCell>
        <mxCell id="0nR7iEuXfGXllmMDNiH0-10" style="edgeStyle=orthogonalEdgeStyle;rounded=1;orthogonalLoop=1;jettySize=auto;html=1;shape=link;opacity=50;strokeWidth=1;" edge="1" parent="1" source="0nR7iEuXfGXllmMDNiH0-29" target="0nR7iEuXfGXllmMDNiH0-23">
          <mxGeometry relative="1" as="geometry">
            <Array as="points">
              <mxPoint x="480" y="270" />
              <mxPoint x="560" y="270" />
            </Array>
          </mxGeometry>
        </mxCell>
        <mxCell id="0nR7iEuXfGXllmMDNiH0-24" style="edgeStyle=none;rounded=0;orthogonalLoop=1;jettySize=auto;html=1;entryX=0.506;entryY=-0.006;entryDx=0;entryDy=0;entryPerimeter=0;" edge="1" parent="1" source="0nR7iEuXfGXllmMDNiH0-13" target="0nR7iEuXfGXllmMDNiH0-13">
          <mxGeometry relative="1" as="geometry" />
        </mxCell>
        <mxCell id="0nR7iEuXfGXllmMDNiH0-28" value="" style="shape=waypoint;sketch=0;fillStyle=solid;size=6;pointerEvents=1;points=[];fillColor=none;resizable=0;rotatable=0;perimeter=centerPerimeter;snapToPoint=1;" vertex="1" parent="1">
          <mxGeometry x="330" y="340" width="20" height="20" as="geometry" />
        </mxCell>
        <mxCell id="0nR7iEuXfGXllmMDNiH0-29" value="" style="shape=waypoint;sketch=0;fillStyle=solid;size=6;pointerEvents=1;points=[];fillColor=none;resizable=0;rotatable=0;perimeter=centerPerimeter;snapToPoint=1;" vertex="1" parent="1">
          <mxGeometry x="470" y="340" width="20" height="20" as="geometry" />
        </mxCell>
        <mxCell id="0nR7iEuXfGXllmMDNiH0-63" value="Assets" style="childLayout=tableLayout;recursiveResize=0;strokeColor=#98bf21;fillColor=#A7C942;shadow=1;align=left;fontSize=8;fontStyle=1" vertex="1" parent="1">
          <mxGeometry x="346" y="265" width="114" height="70" as="geometry" />
        </mxCell>
        <mxCell id="0nR7iEuXfGXllmMDNiH0-68" value="" style="shape=tableRow;horizontal=0;startSize=0;swimlaneHead=0;swimlaneBody=0;top=0;left=0;bottom=0;right=0;dropTarget=0;collapsible=0;recursiveResize=0;expand=0;fontStyle=0;strokeColor=inherit;fillColor=#ffffff;" vertex="1" parent="0nR7iEuXfGXllmMDNiH0-63">
          <mxGeometry width="114" height="18" as="geometry" />
        </mxCell>
        <mxCell id="0nR7iEuXfGXllmMDNiH0-69" value="MAC" style="connectable=0;recursiveResize=0;strokeColor=inherit;fillColor=inherit;align=left;whiteSpace=wrap;html=1;fontSize=7;labelPosition=center;verticalLabelPosition=middle;verticalAlign=middle;fontStyle=1" vertex="1" parent="0nR7iEuXfGXllmMDNiH0-68">
          <mxGeometry width="21" height="18" as="geometry">
            <mxRectangle width="21" height="18" as="alternateBounds" />
          </mxGeometry>
        </mxCell>
        <mxCell id="0nR7iEuXfGXllmMDNiH0-85" value="DEST&lt;br style=&quot;border-color: var(--border-color); font-size: 7px;&quot;&gt;SRC" style="connectable=0;recursiveResize=0;strokeColor=inherit;fillColor=inherit;align=left;whiteSpace=wrap;html=1;fontSize=7;labelPosition=center;verticalLabelPosition=middle;verticalAlign=middle;fontStyle=0" vertex="1" parent="0nR7iEuXfGXllmMDNiH0-68">
          <mxGeometry x="21" width="23" height="18" as="geometry">
            <mxRectangle width="23" height="18" as="alternateBounds" />
          </mxGeometry>
        </mxCell>
        <mxCell id="0nR7iEuXfGXllmMDNiH0-70" value="BB:BB:BB:BB:BB:BB&lt;br&gt;CC:CC:CC:CC:CC:CC" style="connectable=0;recursiveResize=0;strokeColor=inherit;fillColor=inherit;align=left;whiteSpace=wrap;html=1;fontSize=6;labelPosition=center;verticalLabelPosition=middle;verticalAlign=middle;fontStyle=2" vertex="1" parent="0nR7iEuXfGXllmMDNiH0-68">
          <mxGeometry x="44" width="70" height="18" as="geometry">
            <mxRectangle width="70" height="18" as="alternateBounds" />
          </mxGeometry>
        </mxCell>
        <mxCell id="0nR7iEuXfGXllmMDNiH0-72" value="" style="shape=tableRow;horizontal=0;startSize=0;swimlaneHead=0;swimlaneBody=0;top=0;left=0;bottom=0;right=0;dropTarget=0;collapsible=0;recursiveResize=0;expand=0;fontStyle=1;strokeColor=inherit;fillColor=#EAF2D3;" vertex="1" parent="0nR7iEuXfGXllmMDNiH0-63">
          <mxGeometry y="18" width="114" height="17" as="geometry" />
        </mxCell>
        <mxCell id="0nR7iEuXfGXllmMDNiH0-73" value="IP" style="connectable=0;recursiveResize=0;strokeColor=inherit;fillColor=inherit;whiteSpace=wrap;html=1;fontSize=7;labelPosition=center;verticalLabelPosition=middle;align=left;verticalAlign=middle;fontStyle=1" vertex="1" parent="0nR7iEuXfGXllmMDNiH0-72">
          <mxGeometry width="21" height="17" as="geometry">
            <mxRectangle width="21" height="17" as="alternateBounds" />
          </mxGeometry>
        </mxCell>
        <mxCell id="0nR7iEuXfGXllmMDNiH0-86" value="DEST&lt;br style=&quot;border-color: var(--border-color); font-size: 7px;&quot;&gt;SRC" style="connectable=0;recursiveResize=0;strokeColor=inherit;fillColor=inherit;whiteSpace=wrap;html=1;fontSize=7;labelPosition=center;verticalLabelPosition=middle;align=left;verticalAlign=middle;fontStyle=0" vertex="1" parent="0nR7iEuXfGXllmMDNiH0-72">
          <mxGeometry x="21" width="23" height="17" as="geometry">
            <mxRectangle width="23" height="17" as="alternateBounds" />
          </mxGeometry>
        </mxCell>
        <mxCell id="0nR7iEuXfGXllmMDNiH0-74" value="192.168.2.1&lt;br style=&quot;font-size: 6px;&quot;&gt;192.168.2.100" style="connectable=0;recursiveResize=0;strokeColor=inherit;fillColor=inherit;whiteSpace=wrap;html=1;fontSize=6;labelPosition=center;verticalLabelPosition=middle;align=left;verticalAlign=middle;fontStyle=2" vertex="1" parent="0nR7iEuXfGXllmMDNiH0-72">
          <mxGeometry x="44" width="70" height="17" as="geometry">
            <mxRectangle width="70" height="17" as="alternateBounds" />
          </mxGeometry>
        </mxCell>
        <mxCell id="0nR7iEuXfGXllmMDNiH0-76" value="" style="shape=tableRow;horizontal=0;startSize=0;swimlaneHead=0;swimlaneBody=0;top=0;left=0;bottom=0;right=0;dropTarget=0;collapsible=0;recursiveResize=0;expand=0;fontStyle=0;strokeColor=inherit;fillColor=#ffffff;" vertex="1" parent="0nR7iEuXfGXllmMDNiH0-63">
          <mxGeometry y="35" width="114" height="18" as="geometry" />
        </mxCell>
        <mxCell id="0nR7iEuXfGXllmMDNiH0-77" value="UDP" style="connectable=0;recursiveResize=0;strokeColor=inherit;fillColor=inherit;fontStyle=1;align=left;whiteSpace=wrap;html=1;fontSize=7;labelPosition=center;verticalLabelPosition=middle;verticalAlign=middle;" vertex="1" parent="0nR7iEuXfGXllmMDNiH0-76">
          <mxGeometry width="21" height="18" as="geometry">
            <mxRectangle width="21" height="18" as="alternateBounds" />
          </mxGeometry>
        </mxCell>
        <mxCell id="0nR7iEuXfGXllmMDNiH0-87" value="DEST&lt;br style=&quot;font-size: 7px;&quot;&gt;SRC" style="connectable=0;recursiveResize=0;strokeColor=inherit;fillColor=inherit;fontStyle=0;align=left;whiteSpace=wrap;html=1;fontSize=7;labelPosition=center;verticalLabelPosition=middle;verticalAlign=middle;" vertex="1" parent="0nR7iEuXfGXllmMDNiH0-76">
          <mxGeometry x="21" width="23" height="18" as="geometry">
            <mxRectangle width="23" height="18" as="alternateBounds" />
          </mxGeometry>
        </mxCell>
        <mxCell id="0nR7iEuXfGXllmMDNiH0-78" value="53&lt;br style=&quot;font-size: 6px;&quot;&gt;7788" style="connectable=0;recursiveResize=0;strokeColor=inherit;fillColor=inherit;fontStyle=2;align=left;whiteSpace=wrap;html=1;fontSize=6;labelPosition=center;verticalLabelPosition=middle;verticalAlign=middle;" vertex="1" parent="0nR7iEuXfGXllmMDNiH0-76">
          <mxGeometry x="44" width="70" height="18" as="geometry">
            <mxRectangle width="70" height="18" as="alternateBounds" />
          </mxGeometry>
        </mxCell>
        <mxCell id="0nR7iEuXfGXllmMDNiH0-80" value="" style="shape=tableRow;horizontal=0;startSize=0;swimlaneHead=0;swimlaneBody=0;top=0;left=0;bottom=0;right=0;dropTarget=0;collapsible=0;recursiveResize=0;expand=0;fontStyle=1;strokeColor=inherit;fillColor=#EAF2D3;" vertex="1" parent="0nR7iEuXfGXllmMDNiH0-63">
          <mxGeometry y="53" width="114" height="17" as="geometry" />
        </mxCell>
        <mxCell id="0nR7iEuXfGXllmMDNiH0-81" value="DNS" style="connectable=0;recursiveResize=0;strokeColor=inherit;fillColor=inherit;whiteSpace=wrap;html=1;fontSize=7;labelPosition=center;verticalLabelPosition=middle;align=left;verticalAlign=middle;fontStyle=1" vertex="1" parent="0nR7iEuXfGXllmMDNiH0-80">
          <mxGeometry width="21" height="17" as="geometry">
            <mxRectangle width="21" height="17" as="alternateBounds" />
          </mxGeometry>
        </mxCell>
        <mxCell id="0nR7iEuXfGXllmMDNiH0-88" value="baidu.com&#39;s ip?" style="connectable=0;recursiveResize=0;strokeColor=inherit;fillColor=inherit;whiteSpace=wrap;html=1;fontSize=6;labelPosition=center;verticalLabelPosition=middle;align=left;verticalAlign=middle;rowspan=1;colspan=2;fontStyle=2" vertex="1" parent="0nR7iEuXfGXllmMDNiH0-80">
          <mxGeometry x="21" width="93" height="17" as="geometry">
            <mxRectangle width="23" height="17" as="alternateBounds" />
          </mxGeometry>
        </mxCell>
        <mxCell id="0nR7iEuXfGXllmMDNiH0-82" value="" style="connectable=0;recursiveResize=0;strokeColor=inherit;fillColor=inherit;whiteSpace=wrap;html=1;fontSize=7;labelPosition=center;verticalLabelPosition=middle;align=left;verticalAlign=middle;" vertex="1" visible="0" parent="0nR7iEuXfGXllmMDNiH0-80">
          <mxGeometry x="44" width="70" height="17" as="geometry">
            <mxRectangle width="70" height="17" as="alternateBounds" />
          </mxGeometry>
        </mxCell>
        <mxCell id="0nR7iEuXfGXllmMDNiH0-89" value="ARP 缓存" style="shape=table;startSize=10;container=1;collapsible=0;childLayout=tableLayout;strokeColor=default;fontSize=8;fontStyle=1;" vertex="1" parent="1">
          <mxGeometry x="476" y="490" width="110" height="53" as="geometry" />
        </mxCell>
        <mxCell id="0nR7iEuXfGXllmMDNiH0-90" value="" style="shape=tableRow;horizontal=0;startSize=0;swimlaneHead=0;swimlaneBody=0;strokeColor=inherit;top=0;left=0;bottom=0;right=0;collapsible=0;dropTarget=0;fillColor=none;points=[[0,0.5],[1,0.5]];portConstraint=eastwest;fontSize=16;" vertex="1" parent="0nR7iEuXfGXllmMDNiH0-89">
          <mxGeometry y="10" width="110" height="14" as="geometry" />
        </mxCell>
        <mxCell id="0nR7iEuXfGXllmMDNiH0-91" value="IP" style="shape=partialRectangle;html=1;whiteSpace=wrap;connectable=0;strokeColor=inherit;overflow=hidden;fillColor=none;top=0;left=0;bottom=0;right=0;pointerEvents=1;fontSize=8;fontStyle=1" vertex="1" parent="0nR7iEuXfGXllmMDNiH0-90">
          <mxGeometry width="43" height="14" as="geometry">
            <mxRectangle width="43" height="14" as="alternateBounds" />
          </mxGeometry>
        </mxCell>
        <mxCell id="0nR7iEuXfGXllmMDNiH0-92" value="MAC" style="shape=partialRectangle;html=1;whiteSpace=wrap;connectable=0;strokeColor=inherit;overflow=hidden;fillColor=none;top=0;left=0;bottom=0;right=0;pointerEvents=1;fontSize=8;rowspan=1;colspan=2;fontStyle=1" vertex="1" parent="0nR7iEuXfGXllmMDNiH0-90">
          <mxGeometry x="43" width="67" height="14" as="geometry">
            <mxRectangle width="47" height="14" as="alternateBounds" />
          </mxGeometry>
        </mxCell>
        <mxCell id="0nR7iEuXfGXllmMDNiH0-93" value="" style="shape=partialRectangle;html=1;whiteSpace=wrap;connectable=0;strokeColor=inherit;overflow=hidden;fillColor=none;top=0;left=0;bottom=0;right=0;pointerEvents=1;fontSize=16;" vertex="1" visible="0" parent="0nR7iEuXfGXllmMDNiH0-90">
          <mxGeometry x="90" width="20" height="14" as="geometry">
            <mxRectangle width="20" height="14" as="alternateBounds" />
          </mxGeometry>
        </mxCell>
        <mxCell id="0nR7iEuXfGXllmMDNiH0-94" value="" style="shape=tableRow;horizontal=0;startSize=0;swimlaneHead=0;swimlaneBody=0;strokeColor=inherit;top=0;left=0;bottom=0;right=0;collapsible=0;dropTarget=0;fillColor=none;points=[[0,0.5],[1,0.5]];portConstraint=eastwest;fontSize=16;" vertex="1" parent="0nR7iEuXfGXllmMDNiH0-89">
          <mxGeometry y="24" width="110" height="14" as="geometry" />
        </mxCell>
        <mxCell id="0nR7iEuXfGXllmMDNiH0-95" value="192.168.2.1" style="shape=partialRectangle;html=1;whiteSpace=wrap;connectable=0;strokeColor=inherit;overflow=hidden;fillColor=none;top=0;left=0;bottom=0;right=0;pointerEvents=1;fontSize=6;fontStyle=2" vertex="1" parent="0nR7iEuXfGXllmMDNiH0-94">
          <mxGeometry width="43" height="14" as="geometry">
            <mxRectangle width="43" height="14" as="alternateBounds" />
          </mxGeometry>
        </mxCell>
        <mxCell id="0nR7iEuXfGXllmMDNiH0-96" value="BB:BB:BB:BB:BB:BB" style="shape=partialRectangle;html=1;whiteSpace=wrap;connectable=0;strokeColor=inherit;overflow=hidden;fillColor=none;top=0;left=0;bottom=0;right=0;pointerEvents=1;fontSize=6;rowspan=1;colspan=2;fontStyle=2" vertex="1" parent="0nR7iEuXfGXllmMDNiH0-94">
          <mxGeometry x="43" width="67" height="14" as="geometry">
            <mxRectangle width="47" height="14" as="alternateBounds" />
          </mxGeometry>
        </mxCell>
        <mxCell id="0nR7iEuXfGXllmMDNiH0-97" value="" style="shape=partialRectangle;html=1;whiteSpace=wrap;connectable=0;strokeColor=inherit;overflow=hidden;fillColor=none;top=0;left=0;bottom=0;right=0;pointerEvents=1;fontSize=16;" vertex="1" visible="0" parent="0nR7iEuXfGXllmMDNiH0-94">
          <mxGeometry x="90" width="20" height="14" as="geometry">
            <mxRectangle width="20" height="14" as="alternateBounds" />
          </mxGeometry>
        </mxCell>
        <mxCell id="0nR7iEuXfGXllmMDNiH0-98" value="" style="shape=tableRow;horizontal=0;startSize=0;swimlaneHead=0;swimlaneBody=0;strokeColor=inherit;top=0;left=0;bottom=0;right=0;collapsible=0;dropTarget=0;fillColor=none;points=[[0,0.5],[1,0.5]];portConstraint=eastwest;fontSize=16;" vertex="1" parent="0nR7iEuXfGXllmMDNiH0-89">
          <mxGeometry y="38" width="110" height="15" as="geometry" />
        </mxCell>
        <mxCell id="0nR7iEuXfGXllmMDNiH0-99" value="192.168.2.100" style="shape=partialRectangle;html=1;whiteSpace=wrap;connectable=0;strokeColor=inherit;overflow=hidden;fillColor=none;top=0;left=0;bottom=0;right=0;pointerEvents=1;fontSize=6;fontStyle=2" vertex="1" parent="0nR7iEuXfGXllmMDNiH0-98">
          <mxGeometry width="43" height="15" as="geometry">
            <mxRectangle width="43" height="15" as="alternateBounds" />
          </mxGeometry>
        </mxCell>
        <mxCell id="0nR7iEuXfGXllmMDNiH0-100" value="CC:CC:CC:CC:CC:CC" style="shape=partialRectangle;html=1;whiteSpace=wrap;connectable=0;strokeColor=inherit;overflow=hidden;fillColor=none;top=0;left=0;bottom=0;right=0;pointerEvents=1;fontSize=6;rowspan=1;colspan=2;fontStyle=2" vertex="1" parent="0nR7iEuXfGXllmMDNiH0-98">
          <mxGeometry x="43" width="67" height="15" as="geometry">
            <mxRectangle width="47" height="15" as="alternateBounds" />
          </mxGeometry>
        </mxCell>
        <mxCell id="0nR7iEuXfGXllmMDNiH0-101" value="" style="shape=partialRectangle;html=1;whiteSpace=wrap;connectable=0;strokeColor=inherit;overflow=hidden;fillColor=none;top=0;left=0;bottom=0;right=0;pointerEvents=1;fontSize=16;" vertex="1" visible="0" parent="0nR7iEuXfGXllmMDNiH0-98">
          <mxGeometry x="90" width="20" height="15" as="geometry">
            <mxRectangle width="20" height="15" as="alternateBounds" />
          </mxGeometry>
        </mxCell>
        <mxCell id="0nR7iEuXfGXllmMDNiH0-106" value="MAC 映射" style="shape=table;startSize=10;container=1;collapsible=0;childLayout=tableLayout;strokeColor=default;fontSize=8;fontStyle=1;" vertex="1" parent="1">
          <mxGeometry x="460" y="170" width="110" height="68" as="geometry" />
        </mxCell>
        <mxCell id="0nR7iEuXfGXllmMDNiH0-107" value="" style="shape=tableRow;horizontal=0;startSize=0;swimlaneHead=0;swimlaneBody=0;strokeColor=inherit;top=0;left=0;bottom=0;right=0;collapsible=0;dropTarget=0;fillColor=none;points=[[0,0.5],[1,0.5]];portConstraint=eastwest;fontSize=16;" vertex="1" parent="0nR7iEuXfGXllmMDNiH0-106">
          <mxGeometry y="10" width="110" height="14" as="geometry" />
        </mxCell>
        <mxCell id="0nR7iEuXfGXllmMDNiH0-108" value="IF" style="shape=partialRectangle;html=1;whiteSpace=wrap;connectable=0;strokeColor=inherit;overflow=hidden;fillColor=none;top=0;left=0;bottom=0;right=0;pointerEvents=1;fontSize=8;fontStyle=1" vertex="1" parent="0nR7iEuXfGXllmMDNiH0-107">
          <mxGeometry width="43" height="14" as="geometry">
            <mxRectangle width="43" height="14" as="alternateBounds" />
          </mxGeometry>
        </mxCell>
        <mxCell id="0nR7iEuXfGXllmMDNiH0-109" value="MAC" style="shape=partialRectangle;html=1;whiteSpace=wrap;connectable=0;strokeColor=inherit;overflow=hidden;fillColor=none;top=0;left=0;bottom=0;right=0;pointerEvents=1;fontSize=8;rowspan=1;colspan=2;fontStyle=1" vertex="1" parent="0nR7iEuXfGXllmMDNiH0-107">
          <mxGeometry x="43" width="67" height="14" as="geometry">
            <mxRectangle width="47" height="14" as="alternateBounds" />
          </mxGeometry>
        </mxCell>
        <mxCell id="0nR7iEuXfGXllmMDNiH0-110" value="" style="shape=partialRectangle;html=1;whiteSpace=wrap;connectable=0;strokeColor=inherit;overflow=hidden;fillColor=none;top=0;left=0;bottom=0;right=0;pointerEvents=1;fontSize=16;" vertex="1" visible="0" parent="0nR7iEuXfGXllmMDNiH0-107">
          <mxGeometry x="90" width="20" height="14" as="geometry">
            <mxRectangle width="20" height="14" as="alternateBounds" />
          </mxGeometry>
        </mxCell>
        <mxCell id="0nR7iEuXfGXllmMDNiH0-111" value="" style="shape=tableRow;horizontal=0;startSize=0;swimlaneHead=0;swimlaneBody=0;strokeColor=inherit;top=0;left=0;bottom=0;right=0;collapsible=0;dropTarget=0;fillColor=none;points=[[0,0.5],[1,0.5]];portConstraint=eastwest;fontSize=16;" vertex="1" parent="0nR7iEuXfGXllmMDNiH0-106">
          <mxGeometry y="24" width="110" height="14" as="geometry" />
        </mxCell>
        <mxCell id="0nR7iEuXfGXllmMDNiH0-112" value="lan0" style="shape=partialRectangle;html=1;whiteSpace=wrap;connectable=0;strokeColor=inherit;overflow=hidden;fillColor=none;top=0;left=0;bottom=0;right=0;pointerEvents=1;fontSize=6;fontStyle=2;align=center;" vertex="1" parent="0nR7iEuXfGXllmMDNiH0-111">
          <mxGeometry width="43" height="14" as="geometry">
            <mxRectangle width="43" height="14" as="alternateBounds" />
          </mxGeometry>
        </mxCell>
        <mxCell id="0nR7iEuXfGXllmMDNiH0-113" value="BB:BB:BB:BB:BB:BB&lt;font style=&quot;border-color: var(--border-color); font-style: normal; text-align: left; font-size: 11px;&quot; color=&quot;#000000&quot;&gt;&lt;br style=&quot;border-color: var(--border-color);&quot;&gt;&lt;/font&gt;" style="shape=partialRectangle;html=1;whiteSpace=wrap;connectable=0;strokeColor=inherit;overflow=hidden;fillColor=none;top=0;left=0;bottom=0;right=0;pointerEvents=1;fontSize=6;rowspan=1;colspan=2;fontStyle=2;align=center;" vertex="1" parent="0nR7iEuXfGXllmMDNiH0-111">
          <mxGeometry x="43" width="67" height="14" as="geometry">
            <mxRectangle width="47" height="14" as="alternateBounds" />
          </mxGeometry>
        </mxCell>
        <mxCell id="0nR7iEuXfGXllmMDNiH0-114" value="" style="shape=partialRectangle;html=1;whiteSpace=wrap;connectable=0;strokeColor=inherit;overflow=hidden;fillColor=none;top=0;left=0;bottom=0;right=0;pointerEvents=1;fontSize=16;" vertex="1" visible="0" parent="0nR7iEuXfGXllmMDNiH0-111">
          <mxGeometry x="90" width="20" height="14" as="geometry">
            <mxRectangle width="20" height="14" as="alternateBounds" />
          </mxGeometry>
        </mxCell>
        <mxCell id="0nR7iEuXfGXllmMDNiH0-115" value="" style="shape=tableRow;horizontal=0;startSize=0;swimlaneHead=0;swimlaneBody=0;strokeColor=inherit;top=0;left=0;bottom=0;right=0;collapsible=0;dropTarget=0;fillColor=none;points=[[0,0.5],[1,0.5]];portConstraint=eastwest;fontSize=16;" vertex="1" parent="0nR7iEuXfGXllmMDNiH0-106">
          <mxGeometry y="38" width="110" height="15" as="geometry" />
        </mxCell>
        <mxCell id="0nR7iEuXfGXllmMDNiH0-116" value="lan1" style="shape=partialRectangle;html=1;whiteSpace=wrap;connectable=0;strokeColor=inherit;overflow=hidden;fillColor=none;top=0;left=0;bottom=0;right=0;pointerEvents=1;fontSize=6;fontStyle=2;align=center;" vertex="1" parent="0nR7iEuXfGXllmMDNiH0-115">
          <mxGeometry width="43" height="15" as="geometry">
            <mxRectangle width="43" height="15" as="alternateBounds" />
          </mxGeometry>
        </mxCell>
        <mxCell id="0nR7iEuXfGXllmMDNiH0-117" value="DD:DD:DD:DD:DD:DD" style="shape=partialRectangle;html=1;whiteSpace=wrap;connectable=0;strokeColor=inherit;overflow=hidden;fillColor=none;top=0;left=0;bottom=0;right=0;pointerEvents=1;fontSize=6;rowspan=1;colspan=2;fontStyle=2;align=center;" vertex="1" parent="0nR7iEuXfGXllmMDNiH0-115">
          <mxGeometry x="43" width="67" height="15" as="geometry">
            <mxRectangle width="47" height="15" as="alternateBounds" />
          </mxGeometry>
        </mxCell>
        <mxCell id="0nR7iEuXfGXllmMDNiH0-118" value="" style="shape=partialRectangle;html=1;whiteSpace=wrap;connectable=0;strokeColor=inherit;overflow=hidden;fillColor=none;top=0;left=0;bottom=0;right=0;pointerEvents=1;fontSize=16;" vertex="1" visible="0" parent="0nR7iEuXfGXllmMDNiH0-115">
          <mxGeometry x="90" width="20" height="15" as="geometry">
            <mxRectangle width="20" height="15" as="alternateBounds" />
          </mxGeometry>
        </mxCell>
        <mxCell id="0nR7iEuXfGXllmMDNiH0-119" style="shape=tableRow;horizontal=0;startSize=0;swimlaneHead=0;swimlaneBody=0;strokeColor=inherit;top=0;left=0;bottom=0;right=0;collapsible=0;dropTarget=0;fillColor=none;points=[[0,0.5],[1,0.5]];portConstraint=eastwest;fontSize=16;" vertex="1" parent="0nR7iEuXfGXllmMDNiH0-106">
          <mxGeometry y="53" width="110" height="15" as="geometry" />
        </mxCell>
        <mxCell id="0nR7iEuXfGXllmMDNiH0-120" value="lan2" style="shape=partialRectangle;html=1;whiteSpace=wrap;connectable=0;strokeColor=inherit;overflow=hidden;fillColor=none;top=0;left=0;bottom=0;right=0;pointerEvents=1;fontSize=6;fontStyle=2;align=center;" vertex="1" parent="0nR7iEuXfGXllmMDNiH0-119">
          <mxGeometry width="43" height="15" as="geometry">
            <mxRectangle width="43" height="15" as="alternateBounds" />
          </mxGeometry>
        </mxCell>
        <mxCell id="0nR7iEuXfGXllmMDNiH0-121" value="CC:CC:CC:CC:CC:CC" style="shape=partialRectangle;html=1;whiteSpace=wrap;connectable=0;strokeColor=inherit;overflow=hidden;fillColor=none;top=0;left=0;bottom=0;right=0;pointerEvents=1;fontSize=6;fontStyle=2;rowspan=1;colspan=2;align=center;" vertex="1" parent="0nR7iEuXfGXllmMDNiH0-119">
          <mxGeometry x="43" width="67" height="15" as="geometry">
            <mxRectangle width="47" height="15" as="alternateBounds" />
          </mxGeometry>
        </mxCell>
        <mxCell id="0nR7iEuXfGXllmMDNiH0-122" style="shape=partialRectangle;html=1;whiteSpace=wrap;connectable=0;strokeColor=inherit;overflow=hidden;fillColor=none;top=0;left=0;bottom=0;right=0;pointerEvents=1;fontSize=16;" vertex="1" visible="0" parent="0nR7iEuXfGXllmMDNiH0-119">
          <mxGeometry x="90" width="20" height="15" as="geometry">
            <mxRectangle width="20" height="15" as="alternateBounds" />
          </mxGeometry>
        </mxCell>
        <mxCell id="0nR7iEuXfGXllmMDNiH0-124" value="" style="edgeStyle=orthogonalEdgeStyle;rounded=0;orthogonalLoop=1;jettySize=auto;html=1;entryDx=0;entryDy=0;entryPerimeter=0;shape=link;strokeWidth=2;fontFamily=Lucida Console;labelBorderColor=none;fontSize=10;fontStyle=0;fontColor=default;verticalAlign=top;align=left;labelBackgroundColor=none;opacity=40;" edge="1" parent="1" source="0nR7iEuXfGXllmMDNiH0-21" target="0nR7iEuXfGXllmMDNiH0-20">
          <mxGeometry relative="1" as="geometry">
            <mxPoint x="724" y="350" as="sourcePoint" />
            <mxPoint x="724" y="275" as="targetPoint" />
          </mxGeometry>
        </mxCell>
        <mxCell id="0nR7iEuXfGXllmMDNiH0-20" value="&#xa;4" style="shape=waypoint;sketch=0;fillStyle=solid;size=6;pointerEvents=1;points=[];fillColor=none;resizable=0;rotatable=0;perimeter=centerPerimeter;snapToPoint=1;fontStyle=1" vertex="1" parent="1">
          <mxGeometry x="714" y="265" width="20" height="20" as="geometry" />
        </mxCell>
        <mxCell id="0nR7iEuXfGXllmMDNiH0-127" value="ARP 缓存" style="shape=table;startSize=10;container=1;collapsible=0;childLayout=tableLayout;strokeColor=default;fontSize=8;fontStyle=1;" vertex="1" parent="1">
          <mxGeometry x="584" y="170" width="110" height="68" as="geometry" />
        </mxCell>
        <mxCell id="0nR7iEuXfGXllmMDNiH0-128" value="" style="shape=tableRow;horizontal=0;startSize=0;swimlaneHead=0;swimlaneBody=0;strokeColor=inherit;top=0;left=0;bottom=0;right=0;collapsible=0;dropTarget=0;fillColor=none;points=[[0,0.5],[1,0.5]];portConstraint=eastwest;fontSize=16;" vertex="1" parent="0nR7iEuXfGXllmMDNiH0-127">
          <mxGeometry y="10" width="110" height="14" as="geometry" />
        </mxCell>
        <mxCell id="0nR7iEuXfGXllmMDNiH0-129" value="IP" style="shape=partialRectangle;html=1;whiteSpace=wrap;connectable=0;strokeColor=inherit;overflow=hidden;fillColor=none;top=0;left=0;bottom=0;right=0;pointerEvents=1;fontSize=8;fontStyle=1" vertex="1" parent="0nR7iEuXfGXllmMDNiH0-128">
          <mxGeometry width="43" height="14" as="geometry">
            <mxRectangle width="43" height="14" as="alternateBounds" />
          </mxGeometry>
        </mxCell>
        <mxCell id="0nR7iEuXfGXllmMDNiH0-130" value="MAC" style="shape=partialRectangle;html=1;whiteSpace=wrap;connectable=0;strokeColor=inherit;overflow=hidden;fillColor=none;top=0;left=0;bottom=0;right=0;pointerEvents=1;fontSize=8;rowspan=1;colspan=2;fontStyle=1" vertex="1" parent="0nR7iEuXfGXllmMDNiH0-128">
          <mxGeometry x="43" width="67" height="14" as="geometry">
            <mxRectangle width="47" height="14" as="alternateBounds" />
          </mxGeometry>
        </mxCell>
        <mxCell id="0nR7iEuXfGXllmMDNiH0-131" value="" style="shape=partialRectangle;html=1;whiteSpace=wrap;connectable=0;strokeColor=inherit;overflow=hidden;fillColor=none;top=0;left=0;bottom=0;right=0;pointerEvents=1;fontSize=16;" vertex="1" visible="0" parent="0nR7iEuXfGXllmMDNiH0-128">
          <mxGeometry x="90" width="20" height="14" as="geometry">
            <mxRectangle width="20" height="14" as="alternateBounds" />
          </mxGeometry>
        </mxCell>
        <mxCell id="0nR7iEuXfGXllmMDNiH0-132" value="" style="shape=tableRow;horizontal=0;startSize=0;swimlaneHead=0;swimlaneBody=0;strokeColor=inherit;top=0;left=0;bottom=0;right=0;collapsible=0;dropTarget=0;fillColor=none;points=[[0,0.5],[1,0.5]];portConstraint=eastwest;fontSize=16;" vertex="1" parent="0nR7iEuXfGXllmMDNiH0-127">
          <mxGeometry y="24" width="110" height="14" as="geometry" />
        </mxCell>
        <mxCell id="0nR7iEuXfGXllmMDNiH0-133" value="192.168.2.100" style="shape=partialRectangle;html=1;whiteSpace=wrap;connectable=0;strokeColor=inherit;overflow=hidden;fillColor=none;top=0;left=0;bottom=0;right=0;pointerEvents=1;fontSize=6;fontStyle=2" vertex="1" parent="0nR7iEuXfGXllmMDNiH0-132">
          <mxGeometry width="43" height="14" as="geometry">
            <mxRectangle width="43" height="14" as="alternateBounds" />
          </mxGeometry>
        </mxCell>
        <mxCell id="0nR7iEuXfGXllmMDNiH0-134" value="CC:CC:CC:CC:CC:CC" style="shape=partialRectangle;html=1;whiteSpace=wrap;connectable=0;strokeColor=inherit;overflow=hidden;fillColor=none;top=0;left=0;bottom=0;right=0;pointerEvents=1;fontSize=6;rowspan=1;colspan=2;fontStyle=2" vertex="1" parent="0nR7iEuXfGXllmMDNiH0-132">
          <mxGeometry x="43" width="67" height="14" as="geometry">
            <mxRectangle width="47" height="14" as="alternateBounds" />
          </mxGeometry>
        </mxCell>
        <mxCell id="0nR7iEuXfGXllmMDNiH0-135" value="" style="shape=partialRectangle;html=1;whiteSpace=wrap;connectable=0;strokeColor=inherit;overflow=hidden;fillColor=none;top=0;left=0;bottom=0;right=0;pointerEvents=1;fontSize=16;" vertex="1" visible="0" parent="0nR7iEuXfGXllmMDNiH0-132">
          <mxGeometry x="90" width="20" height="14" as="geometry">
            <mxRectangle width="20" height="14" as="alternateBounds" />
          </mxGeometry>
        </mxCell>
        <mxCell id="0nR7iEuXfGXllmMDNiH0-136" value="" style="shape=tableRow;horizontal=0;startSize=0;swimlaneHead=0;swimlaneBody=0;strokeColor=inherit;top=0;left=0;bottom=0;right=0;collapsible=0;dropTarget=0;fillColor=none;points=[[0,0.5],[1,0.5]];portConstraint=eastwest;fontSize=16;" vertex="1" parent="0nR7iEuXfGXllmMDNiH0-127">
          <mxGeometry y="38" width="110" height="15" as="geometry" />
        </mxCell>
        <mxCell id="0nR7iEuXfGXllmMDNiH0-137" value="192.168.2.101" style="shape=partialRectangle;html=1;whiteSpace=wrap;connectable=0;strokeColor=inherit;overflow=hidden;fillColor=none;top=0;left=0;bottom=0;right=0;pointerEvents=1;fontSize=6;fontStyle=2" vertex="1" parent="0nR7iEuXfGXllmMDNiH0-136">
          <mxGeometry width="43" height="15" as="geometry">
            <mxRectangle width="43" height="15" as="alternateBounds" />
          </mxGeometry>
        </mxCell>
        <mxCell id="0nR7iEuXfGXllmMDNiH0-138" value="DD:DD:DD:DD:DD:DD" style="shape=partialRectangle;html=1;whiteSpace=wrap;connectable=0;strokeColor=inherit;overflow=hidden;fillColor=none;top=0;left=0;bottom=0;right=0;pointerEvents=1;fontSize=6;rowspan=1;colspan=2;fontStyle=2" vertex="1" parent="0nR7iEuXfGXllmMDNiH0-136">
          <mxGeometry x="43" width="67" height="15" as="geometry">
            <mxRectangle width="47" height="15" as="alternateBounds" />
          </mxGeometry>
        </mxCell>
        <mxCell id="0nR7iEuXfGXllmMDNiH0-139" value="" style="shape=partialRectangle;html=1;whiteSpace=wrap;connectable=0;strokeColor=inherit;overflow=hidden;fillColor=none;top=0;left=0;bottom=0;right=0;pointerEvents=1;fontSize=16;" vertex="1" visible="0" parent="0nR7iEuXfGXllmMDNiH0-136">
          <mxGeometry x="90" width="20" height="15" as="geometry">
            <mxRectangle width="20" height="15" as="alternateBounds" />
          </mxGeometry>
        </mxCell>
        <mxCell id="0nR7iEuXfGXllmMDNiH0-156" style="shape=tableRow;horizontal=0;startSize=0;swimlaneHead=0;swimlaneBody=0;strokeColor=inherit;top=0;left=0;bottom=0;right=0;collapsible=0;dropTarget=0;fillColor=none;points=[[0,0.5],[1,0.5]];portConstraint=eastwest;fontSize=16;" vertex="1" parent="0nR7iEuXfGXllmMDNiH0-127">
          <mxGeometry y="53" width="110" height="15" as="geometry" />
        </mxCell>
        <mxCell id="0nR7iEuXfGXllmMDNiH0-157" style="shape=partialRectangle;html=1;whiteSpace=wrap;connectable=0;strokeColor=inherit;overflow=hidden;fillColor=none;top=0;left=0;bottom=0;right=0;pointerEvents=1;fontSize=6;fontStyle=2" vertex="1" parent="0nR7iEuXfGXllmMDNiH0-156">
          <mxGeometry width="43" height="15" as="geometry">
            <mxRectangle width="43" height="15" as="alternateBounds" />
          </mxGeometry>
        </mxCell>
        <mxCell id="0nR7iEuXfGXllmMDNiH0-158" style="shape=partialRectangle;html=1;whiteSpace=wrap;connectable=0;strokeColor=inherit;overflow=hidden;fillColor=none;top=0;left=0;bottom=0;right=0;pointerEvents=1;fontSize=6;fontStyle=2" vertex="1" parent="0nR7iEuXfGXllmMDNiH0-156">
          <mxGeometry x="43" width="47" height="15" as="geometry">
            <mxRectangle width="47" height="15" as="alternateBounds" />
          </mxGeometry>
        </mxCell>
        <mxCell id="0nR7iEuXfGXllmMDNiH0-159" style="shape=partialRectangle;html=1;whiteSpace=wrap;connectable=0;strokeColor=inherit;overflow=hidden;fillColor=none;top=0;left=0;bottom=0;right=0;pointerEvents=1;fontSize=16;" vertex="1" parent="0nR7iEuXfGXllmMDNiH0-156">
          <mxGeometry x="90" width="20" height="15" as="geometry">
            <mxRectangle width="20" height="15" as="alternateBounds" />
          </mxGeometry>
        </mxCell>
        <mxCell id="0nR7iEuXfGXllmMDNiH0-140" value="ARP 缓存" style="shape=table;startSize=10;container=1;collapsible=0;childLayout=tableLayout;strokeColor=default;fontSize=8;fontStyle=1;" vertex="1" parent="1">
          <mxGeometry x="336" y="490" width="110" height="53" as="geometry" />
        </mxCell>
        <mxCell id="0nR7iEuXfGXllmMDNiH0-141" value="" style="shape=tableRow;horizontal=0;startSize=0;swimlaneHead=0;swimlaneBody=0;strokeColor=inherit;top=0;left=0;bottom=0;right=0;collapsible=0;dropTarget=0;fillColor=none;points=[[0,0.5],[1,0.5]];portConstraint=eastwest;fontSize=16;" vertex="1" parent="0nR7iEuXfGXllmMDNiH0-140">
          <mxGeometry y="10" width="110" height="14" as="geometry" />
        </mxCell>
        <mxCell id="0nR7iEuXfGXllmMDNiH0-142" value="IP" style="shape=partialRectangle;html=1;whiteSpace=wrap;connectable=0;strokeColor=inherit;overflow=hidden;fillColor=none;top=0;left=0;bottom=0;right=0;pointerEvents=1;fontSize=8;fontStyle=1" vertex="1" parent="0nR7iEuXfGXllmMDNiH0-141">
          <mxGeometry width="43" height="14" as="geometry">
            <mxRectangle width="43" height="14" as="alternateBounds" />
          </mxGeometry>
        </mxCell>
        <mxCell id="0nR7iEuXfGXllmMDNiH0-143" value="MAC" style="shape=partialRectangle;html=1;whiteSpace=wrap;connectable=0;strokeColor=inherit;overflow=hidden;fillColor=none;top=0;left=0;bottom=0;right=0;pointerEvents=1;fontSize=8;rowspan=1;colspan=2;fontStyle=1" vertex="1" parent="0nR7iEuXfGXllmMDNiH0-141">
          <mxGeometry x="43" width="67" height="14" as="geometry">
            <mxRectangle width="47" height="14" as="alternateBounds" />
          </mxGeometry>
        </mxCell>
        <mxCell id="0nR7iEuXfGXllmMDNiH0-144" value="" style="shape=partialRectangle;html=1;whiteSpace=wrap;connectable=0;strokeColor=inherit;overflow=hidden;fillColor=none;top=0;left=0;bottom=0;right=0;pointerEvents=1;fontSize=16;" vertex="1" visible="0" parent="0nR7iEuXfGXllmMDNiH0-141">
          <mxGeometry x="90" width="20" height="14" as="geometry">
            <mxRectangle width="20" height="14" as="alternateBounds" />
          </mxGeometry>
        </mxCell>
        <mxCell id="0nR7iEuXfGXllmMDNiH0-145" value="" style="shape=tableRow;horizontal=0;startSize=0;swimlaneHead=0;swimlaneBody=0;strokeColor=inherit;top=0;left=0;bottom=0;right=0;collapsible=0;dropTarget=0;fillColor=none;points=[[0,0.5],[1,0.5]];portConstraint=eastwest;fontSize=16;" vertex="1" parent="0nR7iEuXfGXllmMDNiH0-140">
          <mxGeometry y="24" width="110" height="14" as="geometry" />
        </mxCell>
        <mxCell id="0nR7iEuXfGXllmMDNiH0-146" value="192.168.2.1" style="shape=partialRectangle;html=1;whiteSpace=wrap;connectable=0;strokeColor=inherit;overflow=hidden;fillColor=none;top=0;left=0;bottom=0;right=0;pointerEvents=1;fontSize=6;fontStyle=2" vertex="1" parent="0nR7iEuXfGXllmMDNiH0-145">
          <mxGeometry width="43" height="14" as="geometry">
            <mxRectangle width="43" height="14" as="alternateBounds" />
          </mxGeometry>
        </mxCell>
        <mxCell id="0nR7iEuXfGXllmMDNiH0-147" value="BB:BB:BB:BB:BB:BB" style="shape=partialRectangle;html=1;whiteSpace=wrap;connectable=0;strokeColor=inherit;overflow=hidden;fillColor=none;top=0;left=0;bottom=0;right=0;pointerEvents=1;fontSize=6;rowspan=1;colspan=2;fontStyle=2" vertex="1" parent="0nR7iEuXfGXllmMDNiH0-145">
          <mxGeometry x="43" width="67" height="14" as="geometry">
            <mxRectangle width="47" height="14" as="alternateBounds" />
          </mxGeometry>
        </mxCell>
        <mxCell id="0nR7iEuXfGXllmMDNiH0-148" value="" style="shape=partialRectangle;html=1;whiteSpace=wrap;connectable=0;strokeColor=inherit;overflow=hidden;fillColor=none;top=0;left=0;bottom=0;right=0;pointerEvents=1;fontSize=16;" vertex="1" visible="0" parent="0nR7iEuXfGXllmMDNiH0-145">
          <mxGeometry x="90" width="20" height="14" as="geometry">
            <mxRectangle width="20" height="14" as="alternateBounds" />
          </mxGeometry>
        </mxCell>
        <mxCell id="0nR7iEuXfGXllmMDNiH0-149" value="" style="shape=tableRow;horizontal=0;startSize=0;swimlaneHead=0;swimlaneBody=0;strokeColor=inherit;top=0;left=0;bottom=0;right=0;collapsible=0;dropTarget=0;fillColor=none;points=[[0,0.5],[1,0.5]];portConstraint=eastwest;fontSize=16;" vertex="1" parent="0nR7iEuXfGXllmMDNiH0-140">
          <mxGeometry y="38" width="110" height="15" as="geometry" />
        </mxCell>
        <mxCell id="0nR7iEuXfGXllmMDNiH0-150" value="192.168.2.101" style="shape=partialRectangle;html=1;whiteSpace=wrap;connectable=0;strokeColor=inherit;overflow=hidden;fillColor=none;top=0;left=0;bottom=0;right=0;pointerEvents=1;fontSize=6;fontStyle=2" vertex="1" parent="0nR7iEuXfGXllmMDNiH0-149">
          <mxGeometry width="43" height="15" as="geometry">
            <mxRectangle width="43" height="15" as="alternateBounds" />
          </mxGeometry>
        </mxCell>
        <mxCell id="0nR7iEuXfGXllmMDNiH0-151" value="DD:DD:DD:DD:DD:DD" style="shape=partialRectangle;html=1;whiteSpace=wrap;connectable=0;strokeColor=inherit;overflow=hidden;fillColor=none;top=0;left=0;bottom=0;right=0;pointerEvents=1;fontSize=6;rowspan=1;colspan=2;fontStyle=2" vertex="1" parent="0nR7iEuXfGXllmMDNiH0-149">
          <mxGeometry x="43" width="67" height="15" as="geometry">
            <mxRectangle width="47" height="15" as="alternateBounds" />
          </mxGeometry>
        </mxCell>
        <mxCell id="0nR7iEuXfGXllmMDNiH0-152" value="" style="shape=partialRectangle;html=1;whiteSpace=wrap;connectable=0;strokeColor=inherit;overflow=hidden;fillColor=none;top=0;left=0;bottom=0;right=0;pointerEvents=1;fontSize=16;" vertex="1" visible="0" parent="0nR7iEuXfGXllmMDNiH0-149">
          <mxGeometry x="90" width="20" height="15" as="geometry">
            <mxRectangle width="20" height="15" as="alternateBounds" />
          </mxGeometry>
        </mxCell>
        <mxCell id="0nR7iEuXfGXllmMDNiH0-155" value="" style="edgeStyle=orthogonalEdgeStyle;rounded=0;orthogonalLoop=1;jettySize=auto;html=1;entryDx=0;entryDy=0;entryPerimeter=0;shape=link;strokeWidth=2;fontFamily=Lucida Console;labelBorderColor=none;fontSize=10;fontStyle=0;fontColor=default;verticalAlign=top;align=left;labelBackgroundColor=none;opacity=40;" edge="1" parent="1" source="0nR7iEuXfGXllmMDNiH0-2" target="0nR7iEuXfGXllmMDNiH0-21">
          <mxGeometry relative="1" as="geometry">
            <mxPoint x="724" y="402" as="sourcePoint" />
            <mxPoint x="724" y="275" as="targetPoint" />
          </mxGeometry>
        </mxCell>
        <mxCell id="0nR7iEuXfGXllmMDNiH0-21" value="" style="shape=waypoint;sketch=0;fillStyle=solid;size=6;pointerEvents=1;points=[];fillColor=none;resizable=0;rotatable=0;perimeter=centerPerimeter;snapToPoint=1;" vertex="1" parent="1">
          <mxGeometry x="714" y="390" width="20" height="20" as="geometry" />
        </mxCell>
        <mxCell id="0nR7iEuXfGXllmMDNiH0-160" value="DNS 缓存" style="shape=table;startSize=10;container=1;collapsible=0;childLayout=tableLayout;strokeColor=default;fontSize=8;fontStyle=1;" vertex="1" parent="1">
          <mxGeometry x="694" y="170" width="102" height="53" as="geometry" />
        </mxCell>
        <mxCell id="0nR7iEuXfGXllmMDNiH0-161" value="" style="shape=tableRow;horizontal=0;startSize=0;swimlaneHead=0;swimlaneBody=0;strokeColor=inherit;top=0;left=0;bottom=0;right=0;collapsible=0;dropTarget=0;fillColor=none;points=[[0,0.5],[1,0.5]];portConstraint=eastwest;fontSize=16;" vertex="1" parent="0nR7iEuXfGXllmMDNiH0-160">
          <mxGeometry y="10" width="102" height="14" as="geometry" />
        </mxCell>
        <mxCell id="0nR7iEuXfGXllmMDNiH0-162" value="Domain" style="shape=partialRectangle;html=1;whiteSpace=wrap;connectable=0;strokeColor=inherit;overflow=hidden;fillColor=none;top=0;left=0;bottom=0;right=0;pointerEvents=1;fontSize=8;fontStyle=1" vertex="1" parent="0nR7iEuXfGXllmMDNiH0-161">
          <mxGeometry width="43" height="14" as="geometry">
            <mxRectangle width="43" height="14" as="alternateBounds" />
          </mxGeometry>
        </mxCell>
        <mxCell id="0nR7iEuXfGXllmMDNiH0-163" value="IP" style="shape=partialRectangle;html=1;whiteSpace=wrap;connectable=0;strokeColor=inherit;overflow=hidden;fillColor=none;top=0;left=0;bottom=0;right=0;pointerEvents=1;fontSize=8;fontStyle=1" vertex="1" parent="0nR7iEuXfGXllmMDNiH0-161">
          <mxGeometry x="43" width="37" height="14" as="geometry">
            <mxRectangle width="37" height="14" as="alternateBounds" />
          </mxGeometry>
        </mxCell>
        <mxCell id="0nR7iEuXfGXllmMDNiH0-164" value="&lt;font style=&quot;font-size: 8px;&quot;&gt;&lt;span style=&quot;font-size: 8px;&quot;&gt;TTL&lt;/span&gt;&lt;/font&gt;" style="shape=partialRectangle;html=1;whiteSpace=wrap;connectable=0;strokeColor=inherit;overflow=hidden;fillColor=none;top=0;left=0;bottom=0;right=0;pointerEvents=1;fontSize=8;align=center;verticalAlign=middle;fontStyle=1" vertex="1" parent="0nR7iEuXfGXllmMDNiH0-161">
          <mxGeometry x="80" width="22" height="14" as="geometry">
            <mxRectangle width="22" height="14" as="alternateBounds" />
          </mxGeometry>
        </mxCell>
        <mxCell id="0nR7iEuXfGXllmMDNiH0-177" style="shape=tableRow;horizontal=0;startSize=0;swimlaneHead=0;swimlaneBody=0;strokeColor=inherit;top=0;left=0;bottom=0;right=0;collapsible=0;dropTarget=0;fillColor=none;points=[[0,0.5],[1,0.5]];portConstraint=eastwest;fontSize=16;" vertex="1" parent="0nR7iEuXfGXllmMDNiH0-160">
          <mxGeometry y="24" width="102" height="15" as="geometry" />
        </mxCell>
        <mxCell id="0nR7iEuXfGXllmMDNiH0-178" value="baidu.com" style="shape=partialRectangle;html=1;whiteSpace=wrap;connectable=0;strokeColor=inherit;overflow=hidden;fillColor=none;top=0;left=0;bottom=0;right=0;pointerEvents=1;fontSize=7;fontStyle=2" vertex="1" parent="0nR7iEuXfGXllmMDNiH0-177">
          <mxGeometry width="43" height="15" as="geometry">
            <mxRectangle width="43" height="15" as="alternateBounds" />
          </mxGeometry>
        </mxCell>
        <mxCell id="0nR7iEuXfGXllmMDNiH0-179" value="3.3.3.3" style="shape=partialRectangle;html=1;whiteSpace=wrap;connectable=0;strokeColor=inherit;overflow=hidden;fillColor=none;top=0;left=0;bottom=0;right=0;pointerEvents=1;fontSize=7;fontStyle=2" vertex="1" parent="0nR7iEuXfGXllmMDNiH0-177">
          <mxGeometry x="43" width="37" height="15" as="geometry">
            <mxRectangle width="37" height="15" as="alternateBounds" />
          </mxGeometry>
        </mxCell>
        <mxCell id="0nR7iEuXfGXllmMDNiH0-180" value="120s" style="shape=partialRectangle;html=1;whiteSpace=wrap;connectable=0;strokeColor=inherit;overflow=hidden;fillColor=none;top=0;left=0;bottom=0;right=0;pointerEvents=1;fontSize=7;fontStyle=2" vertex="1" parent="0nR7iEuXfGXllmMDNiH0-177">
          <mxGeometry x="80" width="22" height="15" as="geometry">
            <mxRectangle width="22" height="15" as="alternateBounds" />
          </mxGeometry>
        </mxCell>
        <mxCell id="0nR7iEuXfGXllmMDNiH0-182" style="shape=tableRow;horizontal=0;startSize=0;swimlaneHead=0;swimlaneBody=0;strokeColor=inherit;top=0;left=0;bottom=0;right=0;collapsible=0;dropTarget=0;fillColor=none;points=[[0,0.5],[1,0.5]];portConstraint=eastwest;fontSize=16;" vertex="1" parent="0nR7iEuXfGXllmMDNiH0-160">
          <mxGeometry y="39" width="102" height="14" as="geometry" />
        </mxCell>
        <mxCell id="0nR7iEuXfGXllmMDNiH0-183" style="shape=partialRectangle;html=1;whiteSpace=wrap;connectable=0;strokeColor=inherit;overflow=hidden;fillColor=none;top=0;left=0;bottom=0;right=0;pointerEvents=1;fontSize=7;fontStyle=2" vertex="1" parent="0nR7iEuXfGXllmMDNiH0-182">
          <mxGeometry width="43" height="14" as="geometry">
            <mxRectangle width="43" height="14" as="alternateBounds" />
          </mxGeometry>
        </mxCell>
        <mxCell id="0nR7iEuXfGXllmMDNiH0-184" style="shape=partialRectangle;html=1;whiteSpace=wrap;connectable=0;strokeColor=inherit;overflow=hidden;fillColor=none;top=0;left=0;bottom=0;right=0;pointerEvents=1;fontSize=7;fontStyle=2" vertex="1" parent="0nR7iEuXfGXllmMDNiH0-182">
          <mxGeometry x="43" width="37" height="14" as="geometry">
            <mxRectangle width="37" height="14" as="alternateBounds" />
          </mxGeometry>
        </mxCell>
        <mxCell id="0nR7iEuXfGXllmMDNiH0-185" style="shape=partialRectangle;html=1;whiteSpace=wrap;connectable=0;strokeColor=inherit;overflow=hidden;fillColor=none;top=0;left=0;bottom=0;right=0;pointerEvents=1;fontSize=7;fontStyle=2" vertex="1" parent="0nR7iEuXfGXllmMDNiH0-182">
          <mxGeometry x="80" width="22" height="14" as="geometry">
            <mxRectangle width="22" height="14" as="alternateBounds" />
          </mxGeometry>
        </mxCell>
        <mxCell id="0nR7iEuXfGXllmMDNiH0-181" value="" style="group" vertex="1" connectable="0" parent="1">
          <mxGeometry x="503" y="245" width="104" height="30" as="geometry" />
        </mxCell>
        <mxCell id="0nR7iEuXfGXllmMDNiH0-15" value="&lt;div style=&quot;text-align: center; font-size: 11px;&quot;&gt;&lt;span style=&quot;background-color: initial;&quot;&gt;&lt;b style=&quot;&quot;&gt;&lt;font style=&quot;font-size: 11px;&quot; color=&quot;#000000&quot;&gt;SW&lt;/font&gt;&lt;/b&gt;&lt;/span&gt;&lt;/div&gt;BB:BB:BB:BB:BB:BB&lt;font style=&quot;font-size: 11px;&quot; color=&quot;#000000&quot;&gt;&lt;br&gt;&lt;/font&gt;192.168.2.1&lt;font style=&quot;font-size: 11px;&quot; color=&quot;#000000&quot;&gt;&lt;br&gt;&lt;/font&gt;" style="fontColor=#0066CC;verticalAlign=top;verticalLabelPosition=bottom;labelPosition=center;align=left;html=1;outlineConnect=0;fillColor=#CCCCCC;strokeColor=#6881B3;gradientColor=none;gradientDirection=north;strokeWidth=2;shape=mxgraph.networks.switch;" vertex="1" parent="0nR7iEuXfGXllmMDNiH0-181">
          <mxGeometry x="4" width="100" height="30" as="geometry" />
        </mxCell>
        <mxCell id="0nR7iEuXfGXllmMDNiH0-19" value="&#xa;0" style="shape=waypoint;sketch=0;fillStyle=solid;size=6;pointerEvents=1;points=[];fillColor=none;resizable=0;rotatable=0;perimeter=centerPerimeter;snapToPoint=1;fontStyle=1" vertex="1" parent="0nR7iEuXfGXllmMDNiH0-181">
          <mxGeometry x="60" width="20" height="20" as="geometry" />
        </mxCell>
        <mxCell id="0nR7iEuXfGXllmMDNiH0-23" value="&#xa;1" style="shape=waypoint;sketch=0;fillStyle=solid;size=6;pointerEvents=1;points=[];fillColor=none;resizable=0;rotatable=0;perimeter=centerPerimeter;snapToPoint=1;fontStyle=1" vertex="1" parent="0nR7iEuXfGXllmMDNiH0-181">
          <mxGeometry x="10" width="20" height="20" as="geometry" />
        </mxCell>
        <mxCell id="0nR7iEuXfGXllmMDNiH0-27" value="&#xa;2" style="shape=waypoint;sketch=0;fillStyle=solid;size=6;pointerEvents=1;points=[];fillColor=none;resizable=0;rotatable=0;perimeter=centerPerimeter;snapToPoint=1;fontStyle=1" vertex="1" parent="0nR7iEuXfGXllmMDNiH0-181">
          <mxGeometry width="20" height="20" as="geometry" />
        </mxCell>
        <mxCell id="0nR7iEuXfGXllmMDNiH0-126" value="" style="rounded=0;whiteSpace=wrap;html=1;" vertex="1" parent="0nR7iEuXfGXllmMDNiH0-181">
          <mxGeometry x="25" y="2.5" width="39" height="20" as="geometry" />
        </mxCell>
        <mxCell id="0nR7iEuXfGXllmMDNiH0-190" value="Assets" style="childLayout=tableLayout;recursiveResize=0;strokeColor=#98bf21;fillColor=#A7C942;shadow=1;align=left;fontSize=8;fontStyle=1" vertex="1" parent="1">
          <mxGeometry x="590" y="315" width="114" height="70" as="geometry" />
        </mxCell>
        <mxCell id="0nR7iEuXfGXllmMDNiH0-191" value="" style="shape=tableRow;horizontal=0;startSize=0;swimlaneHead=0;swimlaneBody=0;top=0;left=0;bottom=0;right=0;dropTarget=0;collapsible=0;recursiveResize=0;expand=0;fontStyle=0;strokeColor=inherit;fillColor=#ffffff;" vertex="1" parent="0nR7iEuXfGXllmMDNiH0-190">
          <mxGeometry width="114" height="18" as="geometry" />
        </mxCell>
        <mxCell id="0nR7iEuXfGXllmMDNiH0-192" value="MAC" style="connectable=0;recursiveResize=0;strokeColor=inherit;fillColor=inherit;align=left;whiteSpace=wrap;html=1;fontSize=7;labelPosition=center;verticalLabelPosition=middle;verticalAlign=middle;fontStyle=1" vertex="1" parent="0nR7iEuXfGXllmMDNiH0-191">
          <mxGeometry width="21" height="18" as="geometry">
            <mxRectangle width="21" height="18" as="alternateBounds" />
          </mxGeometry>
        </mxCell>
        <mxCell id="0nR7iEuXfGXllmMDNiH0-193" value="DEST&lt;br style=&quot;border-color: var(--border-color); font-size: 7px;&quot;&gt;SRC" style="connectable=0;recursiveResize=0;strokeColor=inherit;fillColor=inherit;align=left;whiteSpace=wrap;html=1;fontSize=7;labelPosition=center;verticalLabelPosition=middle;verticalAlign=middle;fontStyle=0" vertex="1" parent="0nR7iEuXfGXllmMDNiH0-191">
          <mxGeometry x="21" width="23" height="18" as="geometry">
            <mxRectangle width="23" height="18" as="alternateBounds" />
          </mxGeometry>
        </mxCell>
        <mxCell id="0nR7iEuXfGXllmMDNiH0-194" value="CC:CC:CC:CC:CC:CC&lt;br&gt;BB:BB:BB:BB:BB:BB" style="connectable=0;recursiveResize=0;strokeColor=inherit;fillColor=inherit;align=left;whiteSpace=wrap;html=1;fontSize=6;labelPosition=center;verticalLabelPosition=middle;verticalAlign=middle;fontStyle=2" vertex="1" parent="0nR7iEuXfGXllmMDNiH0-191">
          <mxGeometry x="44" width="70" height="18" as="geometry">
            <mxRectangle width="70" height="18" as="alternateBounds" />
          </mxGeometry>
        </mxCell>
        <mxCell id="0nR7iEuXfGXllmMDNiH0-195" value="" style="shape=tableRow;horizontal=0;startSize=0;swimlaneHead=0;swimlaneBody=0;top=0;left=0;bottom=0;right=0;dropTarget=0;collapsible=0;recursiveResize=0;expand=0;fontStyle=1;strokeColor=inherit;fillColor=#EAF2D3;" vertex="1" parent="0nR7iEuXfGXllmMDNiH0-190">
          <mxGeometry y="18" width="114" height="17" as="geometry" />
        </mxCell>
        <mxCell id="0nR7iEuXfGXllmMDNiH0-196" value="IP" style="connectable=0;recursiveResize=0;strokeColor=inherit;fillColor=inherit;whiteSpace=wrap;html=1;fontSize=7;labelPosition=center;verticalLabelPosition=middle;align=left;verticalAlign=middle;fontStyle=1" vertex="1" parent="0nR7iEuXfGXllmMDNiH0-195">
          <mxGeometry width="21" height="17" as="geometry">
            <mxRectangle width="21" height="17" as="alternateBounds" />
          </mxGeometry>
        </mxCell>
        <mxCell id="0nR7iEuXfGXllmMDNiH0-197" value="DEST&lt;br style=&quot;border-color: var(--border-color); font-size: 7px;&quot;&gt;SRC" style="connectable=0;recursiveResize=0;strokeColor=inherit;fillColor=inherit;whiteSpace=wrap;html=1;fontSize=7;labelPosition=center;verticalLabelPosition=middle;align=left;verticalAlign=middle;fontStyle=0" vertex="1" parent="0nR7iEuXfGXllmMDNiH0-195">
          <mxGeometry x="21" width="23" height="17" as="geometry">
            <mxRectangle width="23" height="17" as="alternateBounds" />
          </mxGeometry>
        </mxCell>
        <mxCell id="0nR7iEuXfGXllmMDNiH0-198" value="192.168.2.100&lt;br&gt;192.168.2.1" style="connectable=0;recursiveResize=0;strokeColor=inherit;fillColor=inherit;whiteSpace=wrap;html=1;fontSize=6;labelPosition=center;verticalLabelPosition=middle;align=left;verticalAlign=middle;fontStyle=2" vertex="1" parent="0nR7iEuXfGXllmMDNiH0-195">
          <mxGeometry x="44" width="70" height="17" as="geometry">
            <mxRectangle width="70" height="17" as="alternateBounds" />
          </mxGeometry>
        </mxCell>
        <mxCell id="0nR7iEuXfGXllmMDNiH0-199" value="" style="shape=tableRow;horizontal=0;startSize=0;swimlaneHead=0;swimlaneBody=0;top=0;left=0;bottom=0;right=0;dropTarget=0;collapsible=0;recursiveResize=0;expand=0;fontStyle=0;strokeColor=inherit;fillColor=#ffffff;" vertex="1" parent="0nR7iEuXfGXllmMDNiH0-190">
          <mxGeometry y="35" width="114" height="18" as="geometry" />
        </mxCell>
        <mxCell id="0nR7iEuXfGXllmMDNiH0-200" value="UDP" style="connectable=0;recursiveResize=0;strokeColor=inherit;fillColor=inherit;fontStyle=1;align=left;whiteSpace=wrap;html=1;fontSize=7;labelPosition=center;verticalLabelPosition=middle;verticalAlign=middle;" vertex="1" parent="0nR7iEuXfGXllmMDNiH0-199">
          <mxGeometry width="21" height="18" as="geometry">
            <mxRectangle width="21" height="18" as="alternateBounds" />
          </mxGeometry>
        </mxCell>
        <mxCell id="0nR7iEuXfGXllmMDNiH0-201" value="DEST&lt;br style=&quot;font-size: 7px;&quot;&gt;SRC" style="connectable=0;recursiveResize=0;strokeColor=inherit;fillColor=inherit;fontStyle=0;align=left;whiteSpace=wrap;html=1;fontSize=7;labelPosition=center;verticalLabelPosition=middle;verticalAlign=middle;" vertex="1" parent="0nR7iEuXfGXllmMDNiH0-199">
          <mxGeometry x="21" width="23" height="18" as="geometry">
            <mxRectangle width="23" height="18" as="alternateBounds" />
          </mxGeometry>
        </mxCell>
        <mxCell id="0nR7iEuXfGXllmMDNiH0-202" value="7788&lt;br&gt;53" style="connectable=0;recursiveResize=0;strokeColor=inherit;fillColor=inherit;fontStyle=2;align=left;whiteSpace=wrap;html=1;fontSize=6;labelPosition=center;verticalLabelPosition=middle;verticalAlign=middle;" vertex="1" parent="0nR7iEuXfGXllmMDNiH0-199">
          <mxGeometry x="44" width="70" height="18" as="geometry">
            <mxRectangle width="70" height="18" as="alternateBounds" />
          </mxGeometry>
        </mxCell>
        <mxCell id="0nR7iEuXfGXllmMDNiH0-203" value="" style="shape=tableRow;horizontal=0;startSize=0;swimlaneHead=0;swimlaneBody=0;top=0;left=0;bottom=0;right=0;dropTarget=0;collapsible=0;recursiveResize=0;expand=0;fontStyle=1;strokeColor=inherit;fillColor=#EAF2D3;" vertex="1" parent="0nR7iEuXfGXllmMDNiH0-190">
          <mxGeometry y="53" width="114" height="17" as="geometry" />
        </mxCell>
        <mxCell id="0nR7iEuXfGXllmMDNiH0-204" value="DNS" style="connectable=0;recursiveResize=0;strokeColor=inherit;fillColor=inherit;whiteSpace=wrap;html=1;fontSize=7;labelPosition=center;verticalLabelPosition=middle;align=left;verticalAlign=middle;fontStyle=1" vertex="1" parent="0nR7iEuXfGXllmMDNiH0-203">
          <mxGeometry width="21" height="17" as="geometry">
            <mxRectangle width="21" height="17" as="alternateBounds" />
          </mxGeometry>
        </mxCell>
        <mxCell id="0nR7iEuXfGXllmMDNiH0-205" value="baidu.com&#39;s&amp;nbsp; 3.3.3.3" style="connectable=0;recursiveResize=0;strokeColor=inherit;fillColor=inherit;whiteSpace=wrap;html=1;fontSize=6;labelPosition=center;verticalLabelPosition=middle;align=left;verticalAlign=middle;rowspan=1;colspan=2;fontStyle=2" vertex="1" parent="0nR7iEuXfGXllmMDNiH0-203">
          <mxGeometry x="21" width="93" height="17" as="geometry">
            <mxRectangle width="23" height="17" as="alternateBounds" />
          </mxGeometry>
        </mxCell>
        <mxCell id="0nR7iEuXfGXllmMDNiH0-206" value="" style="connectable=0;recursiveResize=0;strokeColor=inherit;fillColor=inherit;whiteSpace=wrap;html=1;fontSize=7;labelPosition=center;verticalLabelPosition=middle;align=left;verticalAlign=middle;" vertex="1" visible="0" parent="0nR7iEuXfGXllmMDNiH0-203">
          <mxGeometry x="44" width="70" height="17" as="geometry">
            <mxRectangle width="70" height="17" as="alternateBounds" />
          </mxGeometry>
        </mxCell>
        <mxCell id="0nR7iEuXfGXllmMDNiH0-212" value="RSP" style="text;html=1;align=center;verticalAlign=middle;resizable=0;points=[];autosize=1;strokeColor=none;fillColor=none;" vertex="1" parent="1">
          <mxGeometry x="664" y="360" width="50" height="30" as="geometry" />
        </mxCell>
        <mxCell id="0nR7iEuXfGXllmMDNiH0-213" value="REQ" style="text;html=1;align=center;verticalAlign=middle;resizable=0;points=[];autosize=1;strokeColor=none;fillColor=none;" vertex="1" parent="1">
          <mxGeometry x="420" y="315" width="50" height="30" as="geometry" />
        </mxCell>
        <mxCell id="0nR7iEuXfGXllmMDNiH0-214" value="DNS 缓存" style="shape=table;startSize=10;container=1;collapsible=0;childLayout=tableLayout;strokeColor=default;fontSize=8;fontStyle=1;" vertex="1" parent="1">
          <mxGeometry x="234" y="490" width="102" height="53" as="geometry" />
        </mxCell>
        <mxCell id="0nR7iEuXfGXllmMDNiH0-215" value="" style="shape=tableRow;horizontal=0;startSize=0;swimlaneHead=0;swimlaneBody=0;strokeColor=inherit;top=0;left=0;bottom=0;right=0;collapsible=0;dropTarget=0;fillColor=none;points=[[0,0.5],[1,0.5]];portConstraint=eastwest;fontSize=16;" vertex="1" parent="0nR7iEuXfGXllmMDNiH0-214">
          <mxGeometry y="10" width="102" height="14" as="geometry" />
        </mxCell>
        <mxCell id="0nR7iEuXfGXllmMDNiH0-216" value="Domain" style="shape=partialRectangle;html=1;whiteSpace=wrap;connectable=0;strokeColor=inherit;overflow=hidden;fillColor=none;top=0;left=0;bottom=0;right=0;pointerEvents=1;fontSize=8;fontStyle=1" vertex="1" parent="0nR7iEuXfGXllmMDNiH0-215">
          <mxGeometry width="43" height="14" as="geometry">
            <mxRectangle width="43" height="14" as="alternateBounds" />
          </mxGeometry>
        </mxCell>
        <mxCell id="0nR7iEuXfGXllmMDNiH0-217" value="IP" style="shape=partialRectangle;html=1;whiteSpace=wrap;connectable=0;strokeColor=inherit;overflow=hidden;fillColor=none;top=0;left=0;bottom=0;right=0;pointerEvents=1;fontSize=8;fontStyle=1" vertex="1" parent="0nR7iEuXfGXllmMDNiH0-215">
          <mxGeometry x="43" width="37" height="14" as="geometry">
            <mxRectangle width="37" height="14" as="alternateBounds" />
          </mxGeometry>
        </mxCell>
        <mxCell id="0nR7iEuXfGXllmMDNiH0-218" value="&lt;font style=&quot;font-size: 8px;&quot;&gt;&lt;span style=&quot;font-size: 8px;&quot;&gt;TTL&lt;/span&gt;&lt;/font&gt;" style="shape=partialRectangle;html=1;whiteSpace=wrap;connectable=0;strokeColor=inherit;overflow=hidden;fillColor=none;top=0;left=0;bottom=0;right=0;pointerEvents=1;fontSize=8;align=center;verticalAlign=middle;fontStyle=1" vertex="1" parent="0nR7iEuXfGXllmMDNiH0-215">
          <mxGeometry x="80" width="22" height="14" as="geometry">
            <mxRectangle width="22" height="14" as="alternateBounds" />
          </mxGeometry>
        </mxCell>
        <mxCell id="0nR7iEuXfGXllmMDNiH0-219" style="shape=tableRow;horizontal=0;startSize=0;swimlaneHead=0;swimlaneBody=0;strokeColor=inherit;top=0;left=0;bottom=0;right=0;collapsible=0;dropTarget=0;fillColor=none;points=[[0,0.5],[1,0.5]];portConstraint=eastwest;fontSize=16;" vertex="1" parent="0nR7iEuXfGXllmMDNiH0-214">
          <mxGeometry y="24" width="102" height="15" as="geometry" />
        </mxCell>
        <mxCell id="0nR7iEuXfGXllmMDNiH0-220" value="baidu.com" style="shape=partialRectangle;html=1;whiteSpace=wrap;connectable=0;strokeColor=inherit;overflow=hidden;fillColor=none;top=0;left=0;bottom=0;right=0;pointerEvents=1;fontSize=7;fontStyle=2" vertex="1" parent="0nR7iEuXfGXllmMDNiH0-219">
          <mxGeometry width="43" height="15" as="geometry">
            <mxRectangle width="43" height="15" as="alternateBounds" />
          </mxGeometry>
        </mxCell>
        <mxCell id="0nR7iEuXfGXllmMDNiH0-221" value="3.3.3.3" style="shape=partialRectangle;html=1;whiteSpace=wrap;connectable=0;strokeColor=inherit;overflow=hidden;fillColor=none;top=0;left=0;bottom=0;right=0;pointerEvents=1;fontSize=7;fontStyle=2" vertex="1" parent="0nR7iEuXfGXllmMDNiH0-219">
          <mxGeometry x="43" width="37" height="15" as="geometry">
            <mxRectangle width="37" height="15" as="alternateBounds" />
          </mxGeometry>
        </mxCell>
        <mxCell id="0nR7iEuXfGXllmMDNiH0-222" value="120s" style="shape=partialRectangle;html=1;whiteSpace=wrap;connectable=0;strokeColor=inherit;overflow=hidden;fillColor=none;top=0;left=0;bottom=0;right=0;pointerEvents=1;fontSize=7;fontStyle=2" vertex="1" parent="0nR7iEuXfGXllmMDNiH0-219">
          <mxGeometry x="80" width="22" height="15" as="geometry">
            <mxRectangle width="22" height="15" as="alternateBounds" />
          </mxGeometry>
        </mxCell>
        <mxCell id="0nR7iEuXfGXllmMDNiH0-223" style="shape=tableRow;horizontal=0;startSize=0;swimlaneHead=0;swimlaneBody=0;strokeColor=inherit;top=0;left=0;bottom=0;right=0;collapsible=0;dropTarget=0;fillColor=none;points=[[0,0.5],[1,0.5]];portConstraint=eastwest;fontSize=16;" vertex="1" parent="0nR7iEuXfGXllmMDNiH0-214">
          <mxGeometry y="39" width="102" height="14" as="geometry" />
        </mxCell>
        <mxCell id="0nR7iEuXfGXllmMDNiH0-224" style="shape=partialRectangle;html=1;whiteSpace=wrap;connectable=0;strokeColor=inherit;overflow=hidden;fillColor=none;top=0;left=0;bottom=0;right=0;pointerEvents=1;fontSize=7;fontStyle=2" vertex="1" parent="0nR7iEuXfGXllmMDNiH0-223">
          <mxGeometry width="43" height="14" as="geometry">
            <mxRectangle width="43" height="14" as="alternateBounds" />
          </mxGeometry>
        </mxCell>
        <mxCell id="0nR7iEuXfGXllmMDNiH0-225" style="shape=partialRectangle;html=1;whiteSpace=wrap;connectable=0;strokeColor=inherit;overflow=hidden;fillColor=none;top=0;left=0;bottom=0;right=0;pointerEvents=1;fontSize=7;fontStyle=2" vertex="1" parent="0nR7iEuXfGXllmMDNiH0-223">
          <mxGeometry x="43" width="37" height="14" as="geometry">
            <mxRectangle width="37" height="14" as="alternateBounds" />
          </mxGeometry>
        </mxCell>
        <mxCell id="0nR7iEuXfGXllmMDNiH0-226" style="shape=partialRectangle;html=1;whiteSpace=wrap;connectable=0;strokeColor=inherit;overflow=hidden;fillColor=none;top=0;left=0;bottom=0;right=0;pointerEvents=1;fontSize=7;fontStyle=2" vertex="1" parent="0nR7iEuXfGXllmMDNiH0-223">
          <mxGeometry x="80" width="22" height="14" as="geometry">
            <mxRectangle width="22" height="14" as="alternateBounds" />
          </mxGeometry>
        </mxCell>
      </root>
    </mxGraphModel>
  </diagram>
</mxfile>
